<svg version="1.0" xmlns="http://www.w3.org/2000/svg" width="1072.000000pt" height="404.000000pt" viewBox="0 0 1072.000000 404.000000" preserveAspectRatio="xMidYMid meet">

<g transform="translate(0.000000,404.000000) scale(0.100000,-0.100000)" fill="#000000" stroke="none">
<path d="M4300 3250 c-65 -16 -294 -31 -425 -29 l-130 2 0 -23 c0 -19 7 -26
33 -31 44 -9 68 -32 89 -88 17 -43 18 -103 18 -871 0 -805 0 -826 -20 -864
-21 -40 -49 -60 -98 -71 -22 -4 -28 -11 -25 -27 l3 -22 375 1 375 1 0 23 c0
19 -6 25 -30 27 -42 5 -82 37 -94 75 -7 21 -11 339 -12 937 -2 870 -4 971 -18
969 -3 -1 -22 -5 -41 -9z" data-index="0" style="visibility: visible;"></path>
<path d="M9150 3250 c-70 -17 -278 -31 -420 -29 -103 1 -145 -1 -148 -10 -6
-18 18 -41 42 -41 23 0 64 -37 87 -80 12 -20 15 -172 17 -840 2 -448 0 -835
-3 -859 -8 -53 -59 -111 -98 -111 -27 0 -51 -22 -45 -42 4 -10 84 -12 369 -10
339 2 364 3 367 20 2 12 -10 23 -40 37 -75 35 -73 20 -76 559 -3 472 -2 479
19 523 29 59 84 95 154 101 64 5 95 -10 122 -61 17 -29 18 -72 18 -532 0 -568
1 -558 -74 -591 -41 -18 -58 -39 -41 -49 7 -4 583 -8 723 -5 4 0 7 9 7 20 0
13 -9 21 -27 25 -48 10 -76 29 -97 65 -20 34 -21 54 -27 530 -5 504 -6 517
-47 597 -41 80 -130 127 -264 139 -165 14 -310 -28 -403 -118 -32 -32 -60 -58
-62 -58 -2 0 -3 187 -3 415 0 228 -3 415 -7 414 -5 -1 -24 -5 -43 -9z" data-index="1" style="visibility: visible;"></path>
<path d="M1382 3063 l-834 -3 7 -98 c4 -53 8 -211 8 -350 l2 -253 25 3 c22 3
29 15 61 113 70 215 130 325 222 412 68 65 126 94 230 117 l27 6 -2 -812 c-3
-764 -4 -815 -21 -846 -23 -42 -84 -71 -152 -73 -77 -2 -110 -12 -110 -32 0
-16 32 -18 550 -19 538 -1 550 0 553 19 3 17 -6 20 -92 29 -78 9 -101 15 -130
37 -63 48 -61 23 -61 892 l0 790 34 3 c51 5 170 -58 235 -124 89 -89 166 -239
219 -425 23 -77 27 -84 50 -84 l26 0 6 310 c4 171 8 328 9 350 1 29 -3 40 -14
40 -8 0 -390 -1 -848 -2z" data-index="2" style="visibility: visible;"></path>
<path d="M2859 2600 c-150 -19 -274 -70 -347 -142 -119 -118 -84 -328 65 -384
83 -32 202 -4 265 63 93 98 70 262 -47 341 -28 19 -51 37 -53 41 -1 5 25 16
58 25 91 26 144 15 197 -40 54 -56 66 -110 61 -292 -4 -197 -7 -200 -288 -302
-188 -68 -232 -91 -302 -157 -78 -75 -101 -136 -96 -253 3 -70 9 -94 33 -139
36 -65 93 -116 154 -135 165 -53 336 -12 453 108 l54 55 17 -48 c20 -58 71
-106 124 -120 117 -31 273 -20 373 25 74 34 92 51 79 76 -10 18 -12 18 -34 4
-29 -19 -66 -21 -83 -4 -9 9 -12 118 -12 428 0 575 -11 648 -103 738 -83 80
-180 111 -372 117 -71 2 -160 0 -196 -5z m201 -875 c0 -258 0 -265 -22 -284
-29 -28 -53 -34 -94 -27 -83 16 -121 91 -111 222 7 100 37 157 132 259 41 44
75 83 75 88 0 4 5 7 10 7 6 0 10 -95 10 -265z" data-index="3" style="visibility: visible;"></path>
<path d="M5084 2600 c-164 -21 -306 -90 -369 -178 -28 -41 -30 -49 -30 -137 0
-87 2 -96 30 -137 92 -132 322 -112 396 35 29 57 30 148 1 203 -23 45 -80 100
-119 115 -33 12 -23 23 42 44 100 31 187 1 229 -80 18 -35 21 -61 24 -213 5
-244 16 -230 -286 -343 -237 -88 -316 -141 -368 -246 -25 -50 -29 -70 -29
-143 0 -70 5 -95 26 -141 49 -103 113 -150 237 -170 143 -24 288 25 381 127
l50 55 13 -43 c17 -57 72 -113 128 -129 67 -19 242 -16 315 5 70 20 145 61
145 79 0 7 -4 18 -9 26 -7 11 -13 10 -34 -4 -37 -24 -79 -16 -88 15 -4 14 -7
223 -8 465 -1 249 -6 468 -11 504 -25 148 -113 238 -272 276 -77 19 -298 27
-394 15z m188 -1162 c-42 -42 -142 -28 -177 26 -38 58 -36 226 4 304 11 20 55
77 100 125 45 49 82 94 83 100 2 7 4 -112 5 -263 3 -254 2 -275 -15 -292z" data-index="4" style="visibility: visible;"></path>
<path d="M6479 2600 c-261 -33 -419 -152 -419 -315 0 -95 55 -180 137 -211 83
-32 202 -4 265 63 101 106 64 286 -74 359 -16 8 -28 18 -28 22 0 5 25 16 56
26 80 25 144 15 195 -31 56 -51 69 -104 69 -283 0 -136 -2 -150 -22 -181 -27
-41 -119 -89 -264 -138 -170 -57 -254 -102 -317 -170 -72 -78 -91 -133 -85
-245 5 -90 28 -147 82 -204 44 -47 94 -70 180 -83 145 -22 277 21 378 124 37
37 58 53 58 42 0 -41 55 -116 102 -141 84 -44 299 -37 410 13 75 33 93 53 74
79 -13 17 -16 18 -33 3 -33 -30 -60 -32 -77 -7 -14 20 -16 75 -16 433 0 570
-11 643 -103 733 -83 80 -179 110 -372 117 -71 2 -160 0 -196 -5z m201 -875
c0 -257 -1 -265 -21 -284 -45 -41 -122 -38 -164 7 -53 57 -59 219 -10 316 14
28 52 80 86 116 33 36 67 75 76 88 8 12 19 22 24 22 5 0 9 -118 9 -265z" data-index="5" style="visibility: visible;"></path>
<path d="M7775 2593 c-143 -30 -265 -114 -315 -218 -22 -43 -25 -64 -25 -151
0 -94 2 -104 34 -170 30 -59 62 -97 238 -270 172 -171 207 -211 233 -265 42
-90 42 -164 0 -213 -38 -43 -88 -60 -151 -53 -145 17 -244 147 -297 391 -10
44 -21 80 -25 79 -4 -2 -16 -3 -27 -3 -19 0 -20 -7 -20 -260 0 -201 3 -260 13
-260 19 0 32 12 52 48 34 57 62 58 185 2 107 -49 163 -62 270 -61 187 1 326
55 428 166 73 79 95 144 90 260 -7 160 -68 242 -344 466 -153 125 -207 183
-228 246 -21 61 -20 101 2 143 59 109 258 93 347 -29 43 -57 81 -151 97 -236
12 -61 14 -65 40 -65 l28 0 0 235 c0 201 -2 235 -15 235 -8 0 -26 -17 -39 -39
-14 -21 -33 -40 -43 -43 -10 -3 -50 8 -89 23 -137 55 -305 71 -439 42z" data-index="6" style="visibility: visible;"></path>
<path d="M5938 898 c-14 -40 -54 -140 -88 -222 -33 -82 -59 -151 -56 -153 13
-14 38 11 63 62 l27 55 91 0 92 0 26 -60 c19 -46 30 -60 46 -60 21 0 21 1 5
38 -9 20 -18 44 -21 52 -11 29 -123 310 -135 335 -6 14 -14 25 -17 25 -3 0
-18 -33 -33 -72z m87 -155 l24 -63 -74 0 c-41 0 -75 3 -75 8 0 4 13 39 29 77
15 39 32 79 36 90 8 22 13 13 60 -112z" data-index="7" style="visibility: visible; opacity: 1;"></path>
<path d="M4510 940 c-91 -43 -131 -105 -132 -206 0 -78 30 -136 94 -180 38
-26 52 -29 119 -29 66 0 81 4 117 28 84 55 122 160 92 252 -14 43 -71 110
-111 130 -50 26 -129 28 -179 5z m156 -46 c129 -61 134 -240 9 -311 -86 -49
-193 -13 -241 79 -18 35 -18 109 0 153 32 77 151 117 232 79z" data-index="8" style="visibility: visible;"></path>
<path d="M3950 734 l0 -215 23 3 c15 2 21 9 20 23 -2 11 0 48 3 81 l6 61 67 5
c103 8 151 51 151 136 0 82 -62 122 -190 122 l-80 0 0 -216z m202 148 c31 -30
31 -94 0 -124 -18 -19 -34 -23 -85 -23 l-62 0 -3 89 -3 88 66 -4 c51 -3 70 -9
87 -26z" data-index="9" style="visibility: visible;"></path>
<path d="M5000 746 c0 -113 -1 -209 -2 -213 -2 -5 7 -9 20 -11 21 -3 22 -1 22
82 l0 86 28 0 c22 -1 37 -15 87 -83 47 -64 66 -83 88 -85 15 -2 27 0 27 3 0 3
-27 41 -59 83 -60 76 -65 92 -32 92 30 0 79 61 87 107 5 33 2 49 -14 75 -32
51 -57 61 -159 66 l-93 4 0 -206z m179 149 c33 -16 41 -33 41 -81 0 -59 -54
-91 -141 -82 l-34 3 -3 74 c-2 41 -1 80 2 88 7 18 99 17 135 -2z" data-index="10" style="visibility: visible;"></path>
<path d="M5410 931 c0 -17 8 -20 53 -23 l52 -3 3 -192 c2 -184 3 -193 22 -193
19 0 20 9 22 193 l3 192 48 3 c39 3 47 6 47 23 0 18 -8 19 -125 19 -117 0
-125 -1 -125 -19z" data-index="11" style="visibility: visible;"></path>
<path d="M6330 735 l0 -215 95 0 c88 0 95 2 95 20 0 17 -8 19 -72 22 l-73 3
-3 193 c-2 184 -3 192 -22 192 -19 0 -20 -7 -20 -215z" data-index="12" style="visibility: visible; opacity: 1;"></path>
</g>
</svg>